<svg xmlns="http://www.w3.org/2000/svg" width="200" height="200"><path fill="#5E889E" d="M137.635 28.744h-11.591c-1.513 0-2.539.28-3.088.852-.543.567-.816 1.63-.816 3.202v9.026c0 1.569.273 2.635.816 3.202.549.567 1.575.852 3.088.852h11.591c1.522 0 2.558-.285 3.103-.852.548-.567.819-1.633.819-3.202v-9.026c0-1.571-.271-2.635-.819-3.202-.546-.572-1.581-.852-3.103-.852zm.323 14.051h-12.236V31.659h12.236v11.136zm-25.982-14.051h-11.59c-1.515 0-2.545.28-3.09.852-.545.567-.821 1.63-.821 3.202v9.026c0 1.569.276 2.635.821 3.202s1.576.852 3.09.852h11.59c1.521 0 2.557-.285 3.104-.852.545-.567.818-1.633.818-3.202v-9.026c0-1.571-.273-2.635-.818-3.202-.548-.572-1.583-.852-3.104-.852zm.322 14.051h-12.239V31.659h12.239v11.136z"/><path fill="#5E889E" d="M180.178 0H19.825C13.591 0 8.492 5.099 8.492 11.33v177.342C8.492 194.9 13.591 200 19.825 200h160.353c6.23 0 11.33-5.1 11.33-11.328V11.33c0-6.231-5.1-11.33-11.33-11.33zM52.579 177.663c0 2.941-2.408 5.349-5.351 5.349H30.829c-2.941 0-5.351-2.407-5.351-5.349v-16.396c0-2.945 2.41-5.354 5.351-5.354h16.399c2.943 0 5.351 2.408 5.351 5.354v16.396zm0-40.645c0 2.941-2.408 5.345-5.351 5.345H30.829c-2.941 0-5.351-2.403-5.351-5.345v-16.401c0-2.941 2.41-5.349 5.351-5.349h16.399c2.943 0 5.351 2.407 5.351 5.349v16.401zm0-40.647c0 2.941-2.408 5.346-5.351 5.346H30.829c-2.941 0-5.351-2.405-5.351-5.346V79.97c0-2.941 2.41-5.349 5.351-5.349h16.399c2.943 0 5.351 2.408 5.351 5.349v16.401zm40.645 81.292c0 2.941-2.403 5.349-5.347 5.349h-16.4c-2.941 0-5.347-2.407-5.347-5.349v-16.396c0-2.945 2.405-5.354 5.347-5.354h16.401c2.944 0 5.347 2.408 5.347 5.354v16.396zm0-40.645c0 2.941-2.403 5.345-5.347 5.345h-16.4c-2.941 0-5.347-2.403-5.347-5.345v-16.401c0-2.941 2.405-5.349 5.347-5.349h16.401c2.944 0 5.347 2.407 5.347 5.349v16.401zm0-40.647a5.36 5.36 0 0 1-5.347 5.346h-16.4c-2.941 0-5.347-2.405-5.347-5.346V79.97c0-2.941 2.405-5.349 5.347-5.349h16.401c2.944 0 5.347 2.408 5.347 5.349v16.401zm40.648 81.292c0 2.941-2.405 5.349-5.347 5.349h-16.403c-2.941 0-5.347-2.407-5.347-5.349v-16.396c0-2.945 2.405-5.354 5.347-5.354h16.403c2.941 0 5.347 2.408 5.347 5.354v16.396zm0-40.645c0 2.941-2.405 5.345-5.347 5.345h-16.403c-2.941 0-5.347-2.403-5.347-5.345v-16.401c0-2.941 2.405-5.349 5.347-5.349h16.403c2.941 0 5.347 2.407 5.347 5.349v16.401zm0-40.647c0 2.941-2.405 5.346-5.347 5.346h-16.403c-2.941 0-5.347-2.405-5.347-5.346V79.97c0-2.941 2.405-5.349 5.347-5.349h16.403c2.941 0 5.347 2.408 5.347 5.349v16.401zm40.647 81.292c0 2.941-2.405 5.349-5.35 5.349h-16.398c-2.943 0-5.349-2.407-5.349-5.349v-57.047c0-2.941 2.405-5.349 5.349-5.349h16.398c2.944 0 5.35 2.407 5.35 5.349v57.047zm0-81.292c0 2.941-2.405 5.346-5.35 5.346h-16.398c-2.943 0-5.349-2.405-5.349-5.346V79.97c0-2.941 2.405-5.349 5.349-5.349h16.398c2.944 0 5.35 2.408 5.35 5.349v16.401zm0-44.082c0 2.939-2.405 5.345-5.35 5.345H30.829c-2.941 0-5.351-2.405-5.351-5.345V22.336c0-2.941 2.41-5.349 5.351-5.349h138.34c2.944 0 5.35 2.407 5.35 5.349v29.953z"/><path fill="#5E889E" d="M163.295 28.744h-11.59c-1.513 0-2.541.28-3.089.852-.545.567-.818 1.63-.818 3.202v9.026c0 1.569.273 2.635.818 3.202.548.567 1.576.852 3.089.852h11.59c1.521 0 2.561-.285 3.105-.852.543-.567.819-1.633.819-3.202v-9.026c0-1.571-.276-2.635-.819-3.202-.545-.572-1.584-.852-3.105-.852zm.324 14.051h-12.236V31.659h12.236v11.136z"/></svg>