<svg xmlns="http://www.w3.org/2000/svg" viewBox="0 0 512 512"><path d="M411,0H101A27.54,27.54,0,0,0,73.5,27.5v457A27.54,27.54,0,0,0,101,512H411a27.54,27.54,0,0,0,27.5-27.5V27.5A27.54,27.54,0,0,0,411,0Zm12.5,484.5A12.52,12.52,0,0,1,411,497H101a12.52,12.52,0,0,1-12.5-12.5V27.5A12.52,12.52,0,0,1,101,15H411a12.52,12.52,0,0,1,12.5,12.5Z"/><path d="M376 40H136a17.52 17.52 0 0 0-17.5 17.5v40A17.52 17.52 0 0 0 136 115H376a17.52 17.52 0 0 0 17.5-17.5v-40A17.52 17.52 0 0 0 376 40zm2.5 57.5A2.5 2.5 0 0 1 376 100H136a2.5 2.5 0 0 1-2.5-2.5v-40A2.5 2.5 0 0 1 136 55H376a2.5 2.5 0 0 1 2.5 2.5zM156 161.5H136A17.52 17.52 0 0 0 118.5 179v20A17.52 17.52 0 0 0 136 216.5h20A17.52 17.52 0 0 0 173.5 199V179A17.52 17.52 0 0 0 156 161.5zm2.5 37.5a2.5 2.5 0 0 1-2.5 2.5H136a2.5 2.5 0 0 1-2.5-2.5V179a2.5 2.5 0 0 1 2.5-2.5h20a2.5 2.5 0 0 1 2.5 2.5zM229.33 161.5h-20a17.52 17.52 0 0 0-17.5 17.5v20a17.52 17.52 0 0 0 17.5 17.5h20a17.52 17.52 0 0 0 17.5-17.5V179A17.52 17.52 0 0 0 229.33 161.5zm2.5 37.5a2.5 2.5 0 0 1-2.5 2.5h-20a2.51 2.51 0 0 1-2.5-2.5V179a2.51 2.51 0 0 1 2.5-2.5h20a2.5 2.5 0 0 1 2.5 2.5zM302.67 161.5h-20a17.52 17.52 0 0 0-17.5 17.5v20a17.52 17.52 0 0 0 17.5 17.5h20a17.52 17.52 0 0 0 17.5-17.5V179A17.52 17.52 0 0 0 302.67 161.5zm2.5 37.5a2.51 2.51 0 0 1-2.5 2.5h-20a2.5 2.5 0 0 1-2.5-2.5V179a2.5 2.5 0 0 1 2.5-2.5h20a2.51 2.51 0 0 1 2.5 2.5zM376 161.5H356A17.52 17.52 0 0 0 338.5 179v20A17.52 17.52 0 0 0 356 216.5h20A17.52 17.52 0 0 0 393.5 199V179A17.52 17.52 0 0 0 376 161.5zm2.5 37.5a2.5 2.5 0 0 1-2.5 2.5H356a2.5 2.5 0 0 1-2.5-2.5V179a2.5 2.5 0 0 1 2.5-2.5h20a2.5 2.5 0 0 1 2.5 2.5zM156 247.5H136A17.52 17.52 0 0 0 118.5 265v20A17.52 17.52 0 0 0 136 302.5h20A17.52 17.52 0 0 0 173.5 285V265A17.52 17.52 0 0 0 156 247.5zm2.5 37.5a2.5 2.5 0 0 1-2.5 2.5H136a2.5 2.5 0 0 1-2.5-2.5V265a2.5 2.5 0 0 1 2.5-2.5h20a2.5 2.5 0 0 1 2.5 2.5zM229.33 247.5h-20a17.52 17.52 0 0 0-17.5 17.5v20a17.52 17.52 0 0 0 17.5 17.5h20a17.52 17.52 0 0 0 17.5-17.5V265A17.52 17.52 0 0 0 229.33 247.5zm2.5 37.5a2.5 2.5 0 0 1-2.5 2.5h-20a2.51 2.51 0 0 1-2.5-2.5V265a2.51 2.51 0 0 1 2.5-2.5h20a2.5 2.5 0 0 1 2.5 2.5zM302.67 247.5h-20a17.52 17.52 0 0 0-17.5 17.5v20a17.52 17.52 0 0 0 17.5 17.5h20a17.52 17.52 0 0 0 17.5-17.5V265A17.52 17.52 0 0 0 302.67 247.5zm2.5 37.5a2.51 2.51 0 0 1-2.5 2.5h-20a2.5 2.5 0 0 1-2.5-2.5V265a2.5 2.5 0 0 1 2.5-2.5h20a2.51 2.51 0 0 1 2.5 2.5zM376 247.5H356A17.52 17.52 0 0 0 338.5 265v20A17.52 17.52 0 0 0 356 302.5h20A17.52 17.52 0 0 0 393.5 285V265A17.52 17.52 0 0 0 376 247.5zm2.5 37.5a2.5 2.5 0 0 1-2.5 2.5H356a2.5 2.5 0 0 1-2.5-2.5V265a2.5 2.5 0 0 1 2.5-2.5h20a2.5 2.5 0 0 1 2.5 2.5zM156 333.5H136A17.52 17.52 0 0 0 118.5 351v20A17.52 17.52 0 0 0 136 388.5h20A17.52 17.52 0 0 0 173.5 371V351A17.52 17.52 0 0 0 156 333.5zm2.5 37.5a2.5 2.5 0 0 1-2.5 2.5H136a2.5 2.5 0 0 1-2.5-2.5V351a2.5 2.5 0 0 1 2.5-2.5h20a2.5 2.5 0 0 1 2.5 2.5zM229.33 333.5h-20a17.52 17.52 0 0 0-17.5 17.5v20a17.52 17.52 0 0 0 17.5 17.5h20a17.52 17.52 0 0 0 17.5-17.5V351A17.52 17.52 0 0 0 229.33 333.5zm2.5 37.5a2.5 2.5 0 0 1-2.5 2.5h-20a2.51 2.51 0 0 1-2.5-2.5V351a2.51 2.51 0 0 1 2.5-2.5h20a2.5 2.5 0 0 1 2.5 2.5zM302.67 333.5h-20a17.52 17.52 0 0 0-17.5 17.5v20a17.52 17.52 0 0 0 17.5 17.5h20a17.52 17.52 0 0 0 17.5-17.5V351A17.52 17.52 0 0 0 302.67 333.5zm2.5 37.5a2.51 2.51 0 0 1-2.5 2.5h-20a2.5 2.5 0 0 1-2.5-2.5V351a2.5 2.5 0 0 1 2.5-2.5h20a2.51 2.51 0 0 1 2.5 2.5zM156 419.5H136A17.52 17.52 0 0 0 118.5 437v20A17.52 17.52 0 0 0 136 474.5h20A17.52 17.52 0 0 0 173.5 457V437A17.52 17.52 0 0 0 156 419.5zm2.5 37.5a2.5 2.5 0 0 1-2.5 2.5H136a2.5 2.5 0 0 1-2.5-2.5V437a2.5 2.5 0 0 1 2.5-2.5h20a2.5 2.5 0 0 1 2.5 2.5zM229.33 419.5h-20a17.52 17.52 0 0 0-17.5 17.5v20a17.52 17.52 0 0 0 17.5 17.5h20a17.52 17.52 0 0 0 17.5-17.5V437A17.52 17.52 0 0 0 229.33 419.5zm2.5 37.5a2.5 2.5 0 0 1-2.5 2.5h-20a2.51 2.51 0 0 1-2.5-2.5V437a2.51 2.51 0 0 1 2.5-2.5h20a2.5 2.5 0 0 1 2.5 2.5zM302.67 419.5h-20a17.52 17.52 0 0 0-17.5 17.5v20a17.52 17.52 0 0 0 17.5 17.5h20a17.52 17.52 0 0 0 17.5-17.5V437A17.52 17.52 0 0 0 302.67 419.5zm2.5 37.5a2.51 2.51 0 0 1-2.5 2.5h-20a2.5 2.5 0 0 1-2.5-2.5V437a2.5 2.5 0 0 1 2.5-2.5h20a2.51 2.51 0 0 1 2.5 2.5zM376 333.5H356A17.52 17.52 0 0 0 338.5 351V457A17.52 17.52 0 0 0 356 474.5h20A17.52 17.52 0 0 0 393.5 457V351A17.52 17.52 0 0 0 376 333.5zM378.5 457a2.5 2.5 0 0 1-2.5 2.5H356a2.5 2.5 0 0 1-2.5-2.5V351a2.5 2.5 0 0 1 2.5-2.5h20a2.5 2.5 0 0 1 2.5 2.5z"/></svg>