<svg xmlns="http://www.w3.org/2000/svg" width="320" height="320" fill-rule="evenodd" clip-rule="evenodd" image-rendering="optimizeQuality" shape-rendering="geometricPrecision" text-rendering="geometricPrecision" viewBox="0 0 8466.66 8466.66"><rect width="8466.67" height="8466.67" x="-.01" y="-.01" fill="none"/><rect width="5943.6" height="8163.49" x="1261.52" y="151.58" fill="#e6e6e6" rx="697.01" ry="719.09"/><path fill-rule="nonzero" d="M1958.52 66.91l4549.61 0c215.04,0 410.49,87.92 552.12,229.55 141.63,141.63 229.55,337.08 229.55,552.12l0 6769.49c0,215.04 -87.92,410.49 -229.56,552.12 -141.63,141.64 -337.08,229.56 -552.11,229.56l-4549.61 0c-215.03,0 -410.48,-87.92 -552.11,-229.56 -141.64,-141.63 -229.56,-337.08 -229.56,-552.12l0 -6769.49c0,-215.04 87.92,-410.49 229.55,-552.12 141.63,-141.63 337.08,-229.55 552.12,-229.55zm4549.61 169.34l-4549.61 0c-168.31,0 -321.39,68.92 -432.4,179.93 -111.01,111.01 -179.93,264.09 -179.93,432.4l0 6769.49c0,168.31 68.92,321.39 179.94,432.4 111.01,111.02 264.09,179.94 432.39,179.94l4549.61 0c168.3,0 321.38,-68.92 432.39,-179.94 111.02,-111.01 179.94,-264.09 179.94,-432.4l0 -6769.49c0,-168.31 -68.92,-321.39 -179.93,-432.4 -111.01,-111.01 -264.09,-179.93 -432.4,-179.93z"/><rect width="1109.95" height="2913.61" x="5584.95" y="4721.19" fill="#fc9" rx="554.98" ry="748.92"/><path fill-rule="nonzero" d="M6139.92 4636.53c175.99,0 335.94,71.94 451.83,187.83 115.89,115.88 187.83,275.82 187.83,451.8l0 1803.68c0,175.98 -71.94,335.92 -187.83,451.8 -115.89,115.89 -275.83,187.83 -451.82,187.83 -175.99,0 -335.93,-71.94 -451.82,-187.83 -115.89,-115.88 -187.83,-275.82 -187.83,-451.8l0 -1803.68c0,-175.98 71.94,-335.92 187.83,-451.8 115.89,-115.89 275.83,-187.83 451.81,-187.83zm0.01 169.34c-129.26,0 -246.83,52.94 -332.1,138.21 -85.27,85.26 -138.21,202.83 -138.21,332.08l0 1803.68c0,129.25 52.94,246.82 138.21,332.08 85.27,85.27 202.84,138.21 332.09,138.21 129.27,0 246.84,-52.94 332.11,-138.21 85.27,-85.26 138.21,-202.83 138.21,-332.08l0 -1803.68c0,-129.25 -52.94,-246.82 -138.21,-332.08 -85.27,-85.27 -202.85,-138.21 -332.1,-138.21z"/><rect width="1109.95" height="1109.95" x="1995.53" y="6524.86" fill="#2b97b3" rx="554.98" ry="285.31"/><path fill-rule="nonzero" d="M2550.49 6440.19c175.99,0 335.94,71.94 451.83,187.83 115.89,115.89 187.83,275.83 187.83,451.81 0,175.99 -71.94,335.93 -187.83,451.82 -115.89,115.89 -275.84,187.83 -451.82,187.83 -175.99,0 -335.93,-71.94 -451.81,-187.83 -115.89,-115.89 -187.83,-275.83 -187.83,-451.81 0,-175.99 71.94,-335.93 187.83,-451.82 115.88,-115.89 275.82,-187.83 451.8,-187.83zm0.01 169.34c-129.26,0 -246.83,52.94 -332.09,138.21 -85.27,85.27 -138.21,202.84 -138.21,332.09 0,129.26 52.94,246.83 138.21,332.1 85.26,85.27 202.83,138.21 332.08,138.21 129.26,0 246.84,-52.94 332.11,-138.21 85.27,-85.27 138.21,-202.84 138.21,-332.09 0,-129.26 -52.94,-246.83 -138.21,-332.1 -85.27,-85.27 -202.85,-138.21 -332.1,-138.21z"/><rect width="1109.95" height="1109.95" x="3758.5" y="6524.86" fill="#2b97b3" rx="554.98" ry="285.31"/><path fill-rule="nonzero" d="M4313.46 6440.19c175.99,0 335.94,71.94 451.83,187.83 115.89,115.89 187.83,275.83 187.83,451.81 0,175.99 -71.94,335.93 -187.83,451.82 -115.89,115.89 -275.84,187.83 -451.82,187.83 -175.99,0 -335.93,-71.94 -451.81,-187.83 -115.89,-115.89 -187.83,-275.83 -187.83,-451.81 0,-175.99 71.94,-335.93 187.83,-451.82 115.88,-115.89 275.82,-187.83 451.8,-187.83zm0.01 169.34c-129.26,0 -246.83,52.94 -332.09,138.21 -85.27,85.27 -138.21,202.84 -138.21,332.09 0,129.26 52.94,246.83 138.21,332.1 85.26,85.27 202.83,138.21 332.08,138.21 129.26,0 246.84,-52.94 332.11,-138.21 85.27,-85.27 138.21,-202.84 138.21,-332.09 0,-129.26 -52.94,-246.83 -138.21,-332.1 -85.27,-85.27 -202.85,-138.21 -332.1,-138.21z"/><rect width="1109.95" height="1109.95" x="1995.53" y="4734.63" fill="#2b97b3" rx="554.98" ry="285.31"/><path fill-rule="nonzero" d="M2550.49 4649.97c175.99,0 335.94,71.94 451.83,187.83 115.89,115.89 187.83,275.83 187.83,451.81 0,175.99 -71.94,335.93 -187.83,451.82 -115.89,115.89 -275.84,187.83 -451.82,187.83 -175.99,0 -335.93,-71.94 -451.81,-187.83 -115.89,-115.89 -187.83,-275.83 -187.83,-451.81 0,-175.99 71.94,-335.93 187.83,-451.82 115.88,-115.89 275.82,-187.83 451.8,-187.83zm0.01 169.34c-129.26,0 -246.83,52.94 -332.09,138.21 -85.27,85.27 -138.21,202.84 -138.21,332.09 0,129.26 52.94,246.83 138.21,332.1 85.26,85.27 202.83,138.21 332.08,138.21 129.26,0 246.84,-52.94 332.11,-138.21 85.27,-85.27 138.21,-202.84 138.21,-332.09 0,-129.26 -52.94,-246.83 -138.21,-332.1 -85.27,-85.27 -202.85,-138.21 -332.1,-138.21z"/><rect width="1109.95" height="1109.95" x="3758.5" y="4734.63" fill="#2b97b3" rx="554.98" ry="285.31"/><path fill-rule="nonzero" d="M4313.46 4649.97c175.99,0 335.94,71.94 451.83,187.83 115.89,115.89 187.83,275.83 187.83,451.81 0,175.99 -71.94,335.93 -187.83,451.82 -115.89,115.89 -275.84,187.83 -451.82,187.83 -175.99,0 -335.93,-71.94 -451.81,-187.83 -115.89,-115.89 -187.83,-275.83 -187.83,-451.81 0,-175.99 71.94,-335.93 187.83,-451.82 115.88,-115.89 275.82,-187.83 451.8,-187.83zm0.01 169.34c-129.26,0 -246.83,52.94 -332.09,138.21 -85.27,85.27 -138.21,202.84 -138.21,332.09 0,129.26 52.94,246.83 138.21,332.1 85.26,85.27 202.83,138.21 332.08,138.21 129.26,0 246.84,-52.94 332.11,-138.21 85.27,-85.27 138.21,-202.84 138.21,-332.09 0,-129.26 -52.94,-246.83 -138.21,-332.1 -85.27,-85.27 -202.85,-138.21 -332.1,-138.21z"/><rect width="1109.95" height="1109.95" x="1995.53" y="2993.59" fill="#2b97b3" rx="554.98" ry="285.31"/><path fill-rule="nonzero" d="M2550.49 2908.92c175.99,0 335.94,71.94 451.83,187.83 115.89,115.89 187.83,275.83 187.83,451.81 0,175.99 -71.94,335.93 -187.83,451.82 -115.89,115.89 -275.84,187.83 -451.82,187.83 -175.99,0 -335.93,-71.94 -451.81,-187.83 -115.89,-115.89 -187.83,-275.83 -187.83,-451.81 0,-175.99 71.94,-335.93 187.83,-451.82 115.88,-115.89 275.82,-187.83 451.8,-187.83zm0.01 169.34c-129.26,0 -246.83,52.94 -332.09,138.21 -85.27,85.27 -138.21,202.84 -138.21,332.09 0,129.26 52.94,246.83 138.21,332.1 85.26,85.27 202.83,138.21 332.08,138.21 129.26,0 246.84,-52.94 332.11,-138.21 85.27,-85.27 138.21,-202.84 138.21,-332.09 0,-129.26 -52.94,-246.83 -138.21,-332.1 -85.27,-85.27 -202.85,-138.21 -332.1,-138.21z"/><rect width="1109.95" height="1109.95" x="3758.5" y="2993.59" fill="#2b97b3" rx="554.98" ry="285.31"/><path fill-rule="nonzero" d="M4313.46 2908.92c175.99,0 335.94,71.94 451.83,187.83 115.89,115.89 187.83,275.83 187.83,451.81 0,175.99 -71.94,335.93 -187.83,451.82 -115.89,115.89 -275.84,187.83 -451.82,187.83 -175.99,0 -335.93,-71.94 -451.81,-187.83 -115.89,-115.89 -187.83,-275.83 -187.83,-451.81 0,-175.99 71.94,-335.93 187.83,-451.82 115.88,-115.89 275.82,-187.83 451.8,-187.83zm0.01 169.34c-129.26,0 -246.83,52.94 -332.09,138.21 -85.27,85.27 -138.21,202.84 -138.21,332.09 0,129.26 52.94,246.83 138.21,332.1 85.26,85.27 202.83,138.21 332.08,138.21 129.26,0 246.84,-52.94 332.11,-138.21 85.27,-85.27 138.21,-202.84 138.21,-332.09 0,-129.26 -52.94,-246.83 -138.21,-332.1 -85.27,-85.27 -202.85,-138.21 -332.1,-138.21z"/><rect width="1109.95" height="1109.95" x="5503.99" y="2993.59" fill="#2b97b3" rx="554.98" ry="285.31"/><path fill-rule="nonzero" d="M6058.96 2908.92c175.99,0 335.94,71.94 451.82,187.83 115.89,115.89 187.83,275.83 187.83,451.81 0,175.99 -71.94,335.93 -187.83,451.82 -115.88,115.89 -275.83,187.83 -451.81,187.83 -175.99,0 -335.93,-71.94 -451.82,-187.83 -115.89,-115.89 -187.83,-275.83 -187.83,-451.81 0,-175.99 71.94,-335.93 187.83,-451.82 115.89,-115.89 275.83,-187.83 451.81,-187.83zm0.01 169.34c-129.26,0 -246.83,52.94 -332.1,138.21 -85.27,85.27 -138.21,202.84 -138.21,332.09 0,129.26 52.94,246.83 138.21,332.1 85.27,85.27 202.84,138.21 332.09,138.21 129.26,0 246.84,-52.94 332.1,-138.21 85.27,-85.27 138.21,-202.84 138.21,-332.09 0,-129.26 -52.94,-246.83 -138.21,-332.1 -85.26,-85.27 -202.84,-138.21 -332.09,-138.21z"/><rect width="4851.55" height="1575.41" x="1825.44" y="617.04" fill="#fff" rx="447.56" ry="447.56"/><path fill-rule="nonzero" d="M2273 532.38l3956.45 0c146.43,0 279.53,59.86 375.94,156.27 96.42,96.42 156.28,229.51 156.28,375.94l0 680.32c0,146.43 -59.86,279.52 -156.28,375.94 -96.41,96.42 -229.51,156.28 -375.94,156.28l-3956.45 0c-146.43,0 -279.53,-59.86 -375.94,-156.28 -96.42,-96.42 -156.28,-229.51 -156.28,-375.94l0 -680.32c0,-146.43 59.86,-279.52 156.28,-375.94 96.41,-96.41 229.51,-156.27 375.94,-156.27zm3956.45 169.34l-3956.45 0c-99.71,0 -190.43,40.86 -256.22,106.65 -65.81,65.81 -106.66,156.51 -106.66,256.22l0 680.32c0,99.71 40.85,190.41 106.66,256.22 65.79,65.8 156.51,106.66 256.22,106.66l3956.45 0c99.71,0 190.43,-40.86 256.22,-106.66 65.81,-65.81 106.66,-156.51 106.66,-256.22l0 -680.32c0,-99.71 -40.85,-190.41 -106.66,-256.22 -65.79,-65.79 -156.51,-106.65 -256.22,-106.65z"/></svg>